TITLE ""
FILE "DISC1Track11.mp3" MP3
  TRACK 01 AUDIO
    TITLE "DISC1Track11_01"
    INDEX 01 00:00:00
  TRACK 02 AUDIO
    TITLE "DISC1Track11_02"
    INDEX 01 00:01:23
  TRACK 03 AUDIO
    TITLE "DISC1Track11_03"
    INDEX 01 00:01:35
  TRACK 04 AUDIO
    TITLE "DISC1Track11_04"
    INDEX 01 00:04:24
  TRACK 05 AUDIO
    TITLE "DISC1Track11_05"
    INDEX 01 00:07:38
  TRACK 06 AUDIO
    TITLE "DISC1Track11_06"
    INDEX 01 00:10:22
  TRACK 07 AUDIO
    TITLE "DISC1Track11_07"
    INDEX 01 00:10:38
  TRACK 08 AUDIO
    TITLE "DISC1Track11_08"
    INDEX 01 00:14:50
  TRACK 09 AUDIO
    TITLE "DISC1Track11_09"
    INDEX 01 00:18:34
  TRACK 10 AUDIO
    TITLE "DISC1Track11_10"
    INDEX 01 00:21:58
  TRACK 11 AUDIO
    TITLE "DISC1Track11_11"
    INDEX 01 00:21:65
  TRACK 12 AUDIO
    TITLE "DISC1Track11_12"
    INDEX 01 00:25:46
  TRACK 13 AUDIO
    TITLE "DISC1Track11_13"
    INDEX 01 00:29:47
  TRACK 14 AUDIO
    TITLE "DISC1Track11_14"
    INDEX 01 00:33:25
  TRACK 15 AUDIO
    TITLE "DISC1Track11_15"
    INDEX 01 00:33:41
  TRACK 16 AUDIO
    TITLE "DISC1Track11_16"
    INDEX 01 00:36:12
  TRACK 17 AUDIO
    TITLE "DISC1Track11_17"
    INDEX 01 00:39:03
  TRACK 18 AUDIO
    TITLE "DISC1Track11_18"
    INDEX 01 00:41:43
  TRACK 19 AUDIO
    TITLE "DISC1Track11_19"
    INDEX 01 00:41:52
  TRACK 20 AUDIO
    TITLE "DISC1Track11_20"
    INDEX 01 00:45:05
  TRACK 21 AUDIO
    TITLE "DISC1Track11_21"
    INDEX 01 00:49:22
  TRACK 22 AUDIO
    TITLE "DISC1Track11_22"
    INDEX 01 00:53:16
  TRACK 23 AUDIO
    TITLE "DISC1Track11_23"
    INDEX 01 00:53:24
  TRACK 24 AUDIO
    TITLE "DISC1Track11_24"
    INDEX 01 00:57:53
  TRACK 25 AUDIO
    TITLE "DISC1Track11_25"
    INDEX 01 01:01:71
  TRACK 26 AUDIO
    TITLE "DISC1Track11_26"
    INDEX 01 01:05:51
  TRACK 27 AUDIO
    TITLE "DISC1Track11_27"
    INDEX 01 01:05:63
  TRACK 28 AUDIO
    TITLE "DISC1Track11_28"
    INDEX 01 01:10:09
  TRACK 29 AUDIO
    TITLE "DISC1Track11_29"
    INDEX 01 01:13:52
  TRACK 30 AUDIO
    TITLE "DISC1Track11_30"
    INDEX 01 01:16:64
  TRACK 31 AUDIO
    TITLE "DISC1Track11_31"
    INDEX 01 01:17:05
  TRACK 32 AUDIO
    TITLE "DISC1Track11_32"
    INDEX 01 01:19:61
  TRACK 33 AUDIO
    TITLE "DISC1Track11_33"
    INDEX 01 01:22:43
  TRACK 34 AUDIO
    TITLE "DISC1Track11_34"
    INDEX 01 01:25:05
  TRACK 35 AUDIO
    TITLE "DISC1Track11_35"
    INDEX 01 01:25:20
  TRACK 36 AUDIO
    TITLE "DISC1Track11_36"
    INDEX 01 01:28:34
  TRACK 37 AUDIO
    TITLE "DISC1Track11_37"
    INDEX 01 01:32:07
  TRACK 38 AUDIO
    TITLE "DISC1Track11_38"
    INDEX 01 01:35:34
  TRACK 39 AUDIO
    TITLE "DISC1Track11_39"
    INDEX 01 01:35:52
  TRACK 40 AUDIO
    TITLE "DISC1Track11_40"
    INDEX 01 01:38:01
  TRACK 41 AUDIO
    TITLE "DISC1Track11_41"
    INDEX 01 01:40:43
  TRACK 42 AUDIO
    TITLE "DISC1Track11_42"
    INDEX 01 01:42:58
